<?xml version="1.0" encoding="UTF-8" standalone="no"?>
<svg
   width="24"
   height="24"
   viewBox="0 0 24 24"
   fill="none"
   stroke="currentColor"
   stroke-width="2"
   stroke-linecap="round"
   stroke-linejoin="round"
   class="lucide-icon lucide lucide-file-code"
   version="1.1"
   id="svg5105"
   sodipodi:docname="pdf-icon.svg"
   inkscape:version="1.2.2 (b0a8486541, 2022-12-01)"
   xmlns:inkscape="http://www.inkscape.org/namespaces/inkscape"
   xmlns:sodipodi="http://sodipodi.sourceforge.net/DTD/sodipodi-0.dtd"
   xmlns="http://www.w3.org/2000/svg"
   xmlns:svg="http://www.w3.org/2000/svg">
  <defs
     id="defs5109" />
  <sodipodi:namedview
     id="namedview5107"
     pagecolor="#ffffff"
     bordercolor="#000000"
     borderopacity="0.25"
     inkscape:showpageshadow="2"
     inkscape:pageopacity="0.0"
     inkscape:pagecheckerboard="0"
     inkscape:deskcolor="#d1d1d1"
     showgrid="false"
     inkscape:zoom="23.082194"
     inkscape:cx="7.6682485"
     inkscape:cy="13.690206"
     inkscape:window-width="1920"
     inkscape:window-height="1052"
     inkscape:window-x="0"
     inkscape:window-y="0"
     inkscape:window-maximized="1"
     inkscape:current-layer="svg5105" />
  <!---->
  <!---->
  <!---->
  <path
     d="M14 2v4a2 2 0 0 0 2 2h4"
     id="path5101" />
  <!---->
  <path
     d="M15 2H6a2 2 0 0 0-2 2v16a2 2 0 0 0 2 2h12a2 2 0 0 0 2-2V7z"
     id="path5103" />
  <!---->
  <!---->
  <!---->
  <path
     style="fill:#000000;fill-opacity:1;stroke-width:0.47;stroke:#000000;stroke-opacity:1;stroke-dasharray:none"
     d="m 18.154071,16.134618 c -0.3092,-0.551092 -1.377604,-0.724237 -1.867755,-0.802152 -0.386349,-0.06146 -0.780762,-0.07978 -1.171526,-0.07944 -0.306822,-0.0021 -0.609147,0.01305 -0.907566,0.03005 -0.109997,0.0074 -0.218891,0.0169 -0.327701,0.02631 -0.111524,-0.115426 -0.219316,-0.234679 -0.323628,-0.356643 -0.663719,-0.785686 -1.199618,-1.676701 -1.6363,-2.6026 0.11594,-0.447375 0.208708,-0.91427 0.264724,-1.39916 0.102277,-0.884989 0.137406,-1.8935551 -0.194192,-2.7372957 -0.114496,-0.2912043 -0.419791,-0.6457268 -0.772021,-0.4691876 -0.404937,0.2030207 -0.51884,0.7782174 -0.551856,1.1859556 -0.02658,0.3295685 -0.0079,0.6599853 0.04736,0.9840373 0.05636,0.3262584 0.147088,0.6360514 0.245881,0.9454204 0.09217,0.283651 0.193769,0.565095 0.304531,0.84391 -0.07027,0.219486 -0.144882,0.435153 -0.223221,0.645302 -0.18265,0.478949 -0.380154,0.933962 -0.570103,1.37166 -0.100153,0.217025 -0.198184,0.429467 -0.294091,0.637156 -0.3035123,0.66669 -0.632996,1.321159 -1.0027961,1.953816 -0.8625812,0.304276 -1.6366386,0.657015 -2.2794802,1.071543 -0.3448461,0.222797 -0.6494618,0.464775 -0.903153,0.730178 -0.2395161,0.250551 -0.4829365,0.575705 -0.5042403,0.93566 -0.011941,0.20319 0.068495,0.400354 0.2349326,0.520875 0.2289079,0.171023 0.5322504,0.15965 0.797823,0.103971 0.8699666,-0.182481 1.5380163,-0.930312 2.10693,-1.560592 0.3918676,-0.434135 0.8378838,-0.985396 1.3044416,-1.652087 0.00104,-0.0015 0.00208,-0.0031 0.00319,-0.0046 0.8001994,-0.248088 1.6710984,-0.457559 2.5953844,-0.611522 0.422253,-0.07002 0.855709,-0.127312 1.29782,-0.167542 0.310896,0.291204 0.646831,0.556353 1.01332,0.777792 0.285433,0.175606 0.58903,0.323881 0.906802,0.434474 0.321336,0.104984 0.644624,0.190713 0.978436,0.244948 0.168561,0.0241 0.340942,0.03506 0.517056,0.02844 0.393056,-0.01486 0.957218,-0.165591 0.994223,-0.642502 0.01139,-0.145984 -0.02012,-0.273976 -0.08317,-0.386179 z m -9.409979,0.875058 c -0.1840927,0.28518 -0.3616511,0.541672 -0.5289388,0.767353 -0.4096904,0.557457 -0.8776061,1.219565 -1.5550754,1.467144 -0.1286722,0.04703 -0.2980801,0.09557 -0.4766563,0.08505 -0.1590553,-0.0093 -0.3159043,-0.07953 -0.3086897,-0.260141 0.00361,-0.09456 0.049819,-0.215158 0.1207716,-0.333644 0.077659,-0.129949 0.1738234,-0.249106 0.277965,-0.358679 0.2231359,-0.234425 0.5052593,-0.461635 0.8298209,-0.672039 0.4977906,-0.322948 1.0920833,-0.613645 1.7545304,-0.873022 -0.038114,0.06026 -0.076131,0.120189 -0.1137319,0.177982 z m 2.31046,-7.1515451 c -0.0511,-0.2982509 -0.05882,-0.600659 -0.02741,-0.8914397 0.01562,-0.1453911 0.04524,-0.2873012 0.0881,-0.4203 0.03632,-0.1128849 0.114746,-0.3883866 0.239857,-0.4237795 0.206244,-0.058386 0.269646,0.3843975 0.292987,0.5096734 0.132907,0.7126081 0.01579,1.5050839 -0.143693,2.2041109 -0.02537,0.111191 -0.05364,0.220591 -0.08259,0.329569 -0.0494,-0.135879 -0.0965,-0.272193 -0.139877,-0.409181 -0.09336,-0.299183 -0.178746,-0.601846 -0.22738,-0.8986531 z m 1.415965,5.6254981 c -0.774906,0.125617 -1.512043,0.290186 -2.20496,0.484465 0.08344,-0.02334 0.464689,-0.745881 0.549733,-0.895854 0.400695,-0.705732 0.72848,-1.446435 0.964007,-2.223462 0.415887,0.82252 0.920637,1.609393 1.540732,2.309781 0.05712,0.06357 0.115176,0.126381 0.174247,0.188421 -0.347477,0.03743 -0.689437,0.083 -1.023759,0.136656 z m 5.240506,0.992525 c -0.02834,0.153199 -0.355539,0.240789 -0.50823,0.264894 -0.451194,0.07095 -0.928529,0.01418 -1.360371,-0.13088 -0.296299,-0.09947 -0.582071,-0.234933 -0.853585,-0.397893 -0.269902,-0.163044 -0.522405,-0.354861 -0.758441,-0.56637 0.291034,-0.01748 0.585635,-0.02894 0.881678,-0.02334 0.296043,0.0031 0.594378,0.01791 0.889063,0.05636 0.552619,0.06162 1.171866,0.251314 1.606848,0.609909 0.08564,0.0707 0.112968,0.133171 0.103041,0.18732 z"
     id="path59" />
</svg>
